STARTFONT 2.1
COMMENT This font image translated from Metafont
COMMENT Input file was ``bnsl10''
COMMENT DPI was ``120'', usermag ``1000'', blackness ``3''
COMMENT shrink was 1
FONT -*-bengali-medium-o-*-*-*-120-*-*-*-*-*-fontspecific
SIZE 10 120 120
FONTBOUNDINGBOX 32 21 -9 -5
STARTPROPERTIES 4
FONT_ASCENT 16
FONT_DESCENT 3
COPYRIGHT "GNU General Public License"
_XMBDFED_INFO "Edited with xmbdfed 4.5."
ENDPROPERTIES
CHARS 249
STARTCHAR C001
ENCODING 1
SWIDTH 480 0
DWIDTH 8 0
BBX 9 16 2 -1
BITMAP
8000
8000
7E00
0100
0100
FF80
1C00
7200
0200
0200
8400
7800
2000
1000
0800
0400
ENDCHAR
STARTCHAR C002
ENCODING 2
SWIDTH 600 0
DWIDTH 10 0
BBX 11 15 2 0
BITMAP
4000
4000
3F80
0040
0040
FFE0
3000
6880
6B80
0D00
1900
6200
8200
0200
0200
ENDCHAR
STARTCHAR C003
ENCODING 3
SWIDTH 600 0
DWIDTH 10 0
BBX 11 14 2 1
BITMAP
8000
C000
3F80
0040
0040
FFE0
4400
8800
8980
8E80
8080
8080
4100
3E00
ENDCHAR
STARTCHAR C004
ENCODING 4
SWIDTH 660 0
DWIDTH 11 0
BBX 12 14 2 1
BITMAP
4000
4000
3FC0
0020
0020
FFF0
2200
A400
A4C0
A740
6040
6040
3180
1E00
ENDCHAR
STARTCHAR C005
ENCODING 5
SWIDTH 720 0
DWIDTH 12 0
BBX 10 10 3 0
BITMAP
CE40
F640
1A40
2240
C480
C480
2680
1580
1900
0800
ENDCHAR
STARTCHAR C006
ENCODING 6
SWIDTH 660 0
DWIDTH 11 0
BBX 10 10 2 0
BITMAP
03C0
0440
0840
4C80
8C80
8080
8080
7E80
0100
0100
ENDCHAR
STARTCHAR C007
ENCODING 7
SWIDTH 780 0
DWIDTH 13 0
BBX 13 15 2 0
BITMAP
0200
0400
0400
03F0
0008
03C8
0448
0850
4CE0
8C80
8080
8080
7F00
0100
0100
ENDCHAR
STARTCHAR C008
ENCODING 8
SWIDTH 600 0
DWIDTH 10 0
BBX 9 9 2 1
BITMAP
0700
5880
B880
8700
8600
8100
8100
4200
3C00
ENDCHAR
STARTCHAR C014
ENCODING 14
SWIDTH 300 0
DWIDTH 5 0
BBX 7 10 1 0
BITMAP
7E
08
10
10
10
10
20
20
20
C0
ENDCHAR
STARTCHAR C015
ENCODING 15
SWIDTH 0 0
DWIDTH 0 0
BBX 8 3 -9 -1
BITMAP
80
81
FF
ENDCHAR
STARTCHAR C016
ENCODING 16
SWIDTH 600 0
DWIDTH 10 0
BBX 11 11 2 -1
BITMAP
FFE0
1880
1880
E700
1900
1100
0200
3C00
1800
0400
0200
ENDCHAR
STARTCHAR C017
ENCODING 17
SWIDTH 600 0
DWIDTH 10 0
BBX 12 10 2 0
BITMAP
FFF0
0C20
1440
6380
0080
0080
7C80
6280
6100
0100
ENDCHAR
STARTCHAR C018
ENCODING 18
SWIDTH 1140 0
DWIDTH 19 0
BBX 20 10 2 0
BITMAP
FF9E70
18E140
1492C0
631C40
003080
002080
000080
000080
000100
000100
ENDCHAR
STARTCHAR C019
ENCODING 19
SWIDTH 1140 0
DWIDTH 19 0
BBX 20 10 2 0
BITMAP
FF9E70
18E140
1492C0
631C40
003080
003880
004780
006480
006100
000100
ENDCHAR
STARTCHAR C020
ENCODING 20
SWIDTH 1020 0
DWIDTH 17 0
BBX 18 10 2 0
BITMAP
FFFFC0
088600
148500
638900
004900
008E00
038E00
005000
003000
001000
ENDCHAR
STARTCHAR C021
ENCODING 21
SWIDTH 600 0
DWIDTH 10 0
BBX 12 10 2 0
BITMAP
FFF0
0C20
1440
6380
0080
0F80
3080
0C80
0300
0100
ENDCHAR
STARTCHAR C022
ENCODING 22
SWIDTH 780 0
DWIDTH 13 0
BBX 14 10 2 0
BITMAP
FFFC
0C50
1450
6390
00A0
0120
07A0
0760
0040
0040
ENDCHAR
STARTCHAR C023
ENCODING 23
SWIDTH 600 0
DWIDTH 10 0
BBX 12 10 2 0
BITMAP
FFF0
0C20
1440
6380
0080
7880
8780
E480
E100
0100
ENDCHAR
STARTCHAR C024
ENCODING 24
SWIDTH 480 0
DWIDTH 8 0
BBX 10 11 1 -1
BITMAP
7FC0
1E00
3100
0100
0200
3C00
0800
3400
4E00
C400
0800
ENDCHAR
STARTCHAR C025
ENCODING 25
SWIDTH 720 0
DWIDTH 12 0
BBX 14 10 2 0
BITMAP
FFFC
0100
0560
1170
4110
63E0
1200
0A00
2600
2400
ENDCHAR
STARTCHAR C026
ENCODING 26
SWIDTH 720 0
DWIDTH 12 0
BBX 13 10 2 0
BITMAP
FFF8
0100
05C0
1120
4120
6240
1240
0A40
2680
2480
ENDCHAR
STARTCHAR C027
ENCODING 27
SWIDTH 540 0
DWIDTH 9 0
BBX 10 11 2 -1
BITMAP
FFC0
3200
6D00
6500
6100
0200
FC00
2000
1800
0400
0200
ENDCHAR
STARTCHAR C028
ENCODING 28
SWIDTH 660 0
DWIDTH 11 0
BBX 12 11 2 -1
BITMAP
FFF0
1C00
7280
0340
0240
0480
7880
2080
1900
0500
0400
ENDCHAR
STARTCHAR C029
ENCODING 29
SWIDTH 720 0
DWIDTH 12 0
BBX 9 10 3 0
BITMAP
1C80
B380
C980
8880
B300
8380
8080
8080
4100
3E00
ENDCHAR
STARTCHAR C030
ENCODING 30
SWIDTH 720 0
DWIDTH 12 0
BBX 9 10 3 0
BITMAP
EE80
B980
F980
F880
8300
8380
8080
8080
4100
3E00
ENDCHAR
STARTCHAR C031
ENCODING 31
SWIDTH 660 0
DWIDTH 11 0
BBX 12 10 2 0
BITMAP
FFF0
1C00
7380
03C0
03C0
8400
7800
1000
0800
0400
ENDCHAR
STARTCHAR C032
ENCODING 32
SWIDTH 420 0
DWIDTH 7 0
BBX 0 0 0 0
BITMAP
ENDCHAR
STARTCHAR C033
ENCODING 33
SWIDTH 600 0
DWIDTH 10 0
BBX 5 13 6 -2
BITMAP
18
18
10
30
30
20
60
60
40
00
00
C0
C0
ENDCHAR
STARTCHAR C034
ENCODING 34
SWIDTH 420 0
DWIDTH 7 0
BBX 7 6 3 7
BITMAP
7E
7E
12
24
48
80
ENDCHAR
STARTCHAR C035
ENCODING 35
SWIDTH 540 0
DWIDTH 9 0
BBX 9 12 1 -2
BITMAP
0480
0500
0900
0A00
7F80
1400
1400
FF00
2800
4800
5000
9000
ENDCHAR
STARTCHAR C036
ENCODING 36
SWIDTH 660 0
DWIDTH 11 0
BBX 11 14 1 -1
BITMAP
0080
0100
0100
0200
0400
0400
0800
0BE0
1000
2000
2000
4000
4000
8000
ENDCHAR
STARTCHAR C037
ENCODING 37
SWIDTH 720 0
DWIDTH 12 0
BBX 11 15 2 -1
BITMAP
1800
2C20
27E0
4440
4480
4900
4A00
3400
0580
0A40
1440
2440
4440
8480
8300
ENDCHAR
STARTCHAR C038
ENCODING 38
SWIDTH 480 0
DWIDTH 8 0
BBX 8 12 3 -1
BITMAP
30
6B
CC
14
E4
24
18
18
68
C8
30
10
ENDCHAR
STARTCHAR C039
ENCODING 39
SWIDTH 300 0
DWIDTH 5 0
BBX 3 5 4 8
BITMAP
E0
E0
20
40
80
ENDCHAR
STARTCHAR C040
ENCODING 40
SWIDTH 300 0
DWIDTH 5 0
BBX 6 16 2 -3
BITMAP
04
08
10
30
20
60
40
40
80
80
80
80
80
80
40
40
ENDCHAR
STARTCHAR C041
ENCODING 41
SWIDTH 300 0
DWIDTH 5 0
BBX 6 16 0 -3
BITMAP
18
08
0C
0C
0C
0C
0C
0C
0C
18
18
30
30
60
C0
80
ENDCHAR
STARTCHAR C042
ENCODING 42
SWIDTH 480 0
DWIDTH 8 0
BBX 7 8 3 5
BITMAP
08
52
3C
10
78
A4
20
20
ENDCHAR
STARTCHAR C043
ENCODING 43
SWIDTH 660 0
DWIDTH 11 0
BBX 10 10 2 0
BITMAP
0400
0400
0400
0400
0800
FFC0
0800
0800
1000
1000
ENDCHAR
STARTCHAR C044
ENCODING 44
SWIDTH 360 0
DWIDTH 6 0
BBX 3 5 2 -3
BITMAP
E0
E0
20
40
80
ENDCHAR
STARTCHAR C045
ENCODING 45
SWIDTH 360 0
DWIDTH 6 0
BBX 6 1 1 4
BITMAP
FC
ENDCHAR
STARTCHAR C046
ENCODING 46
SWIDTH 480 0
DWIDTH 8 0
BBX 3 10 6 0
BITMAP
20
20
20
20
40
40
40
40
80
80
ENDCHAR
STARTCHAR C047
ENCODING 47
SWIDTH 300 0
DWIDTH 5 0
BBX 7 12 0 -2
BITMAP
02
02
04
08
08
10
10
20
20
40
80
80
ENDCHAR
STARTCHAR C048
ENCODING 48
SWIDTH 540 0
DWIDTH 9 0
BBX 8 8 2 1
BITMAP
1E
21
41
81
81
82
84
78
ENDCHAR
STARTCHAR C049
ENCODING 49
SWIDTH 540 0
DWIDTH 9 0
BBX 6 10 3 0
BITMAP
40
80
40
30
08
04
04
74
F8
E0
ENDCHAR
STARTCHAR C050
ENCODING 50
SWIDTH 540 0
DWIDTH 9 0
BBX 7 11 2 -1
BITMAP
20
30
0C
02
02
84
F8
20
10
08
04
ENDCHAR
STARTCHAR C051
ENCODING 51
SWIDTH 540 0
DWIDTH 9 0
BBX 8 7 2 1
BITMAP
84
9E
9D
81
41
42
3C
ENDCHAR
STARTCHAR C052
ENCODING 52
SWIDTH 540 0
DWIDTH 9 0
BBX 8 10 2 0
BITMAP
1E
21
41
42
3C
3C
42
82
84
78
ENDCHAR
STARTCHAR C053
ENCODING 53
SWIDTH 540 0
DWIDTH 9 0
BBX 9 10 1 0
BITMAP
0C00
1400
2380
4100
4200
8400
8800
8800
4800
3C00
ENDCHAR
STARTCHAR C054
ENCODING 54
SWIDTH 540 0
DWIDTH 9 0
BBX 8 9 2 1
BITMAP
10
08
88
91
97
99
81
42
3C
ENDCHAR
STARTCHAR C055
ENCODING 55
SWIDTH 540 0
DWIDTH 9 0
BBX 6 10 3 0
BITMAP
38
44
84
FC
04
08
08
08
08
08
ENDCHAR
STARTCHAR C056
ENCODING 56
SWIDTH 540 0
DWIDTH 9 0
BBX 9 10 1 0
BITMAP
2000
2000
2000
4080
7F00
4400
4400
8800
9000
E000
ENDCHAR
STARTCHAR C057
ENCODING 57
SWIDTH 540 0
DWIDTH 9 0
BBX 8 10 1 0
BITMAP
20
20
10
0C
02
01
71
89
C5
C6
ENDCHAR
STARTCHAR C058
ENCODING 58
SWIDTH 420 0
DWIDTH 7 0
BBX 4 8 4 1
BITMAP
30
70
60
00
00
00
C0
C0
ENDCHAR
STARTCHAR C059
ENCODING 59
SWIDTH 360 0
DWIDTH 6 0
BBX 4 9 2 -3
BITMAP
30
70
60
00
E0
E0
20
40
80
ENDCHAR
STARTCHAR C060
ENCODING 60
SWIDTH 720 0
DWIDTH 12 0
BBX 7 10 7 0
BITMAP
22
22
42
44
44
44
84
88
88
88
ENDCHAR
STARTCHAR C061
ENCODING 61
SWIDTH 720 0
DWIDTH 12 0
BBX 12 5 1 2
BITMAP
7FF0
0000
0000
0000
FFE0
ENDCHAR
STARTCHAR C062
ENCODING 62
SWIDTH 480 0
DWIDTH 8 0
BBX 9 11 2 -1
BITMAP
FF80
3C00
6200
0200
0400
7800
1000
0800
7C00
E800
1000
ENDCHAR
STARTCHAR C063
ENCODING 63
SWIDTH 780 0
DWIDTH 13 0
BBX 6 12 8 -1
BITMAP
38
E4
E4
04
08
10
20
20
40
00
C0
C0
ENDCHAR
STARTCHAR C064
ENCODING 64
SWIDTH 660 0
DWIDTH 11 0
BBX 12 11 2 -1
BITMAP
FFF0
0400
F400
CDC0
0E40
0880
0180
0680
0D00
0300
0100
ENDCHAR
STARTCHAR C065
ENCODING 65
SWIDTH 300 0
DWIDTH 5 0
BBX 6 10 2 0
BITMAP
FC
20
20
20
40
40
40
40
80
80
ENDCHAR
STARTCHAR C066
ENCODING 66
SWIDTH 540 0
DWIDTH 9 0
BBX 7 10 2 0
BITMAP
3C
62
9C
80
80
40
38
04
02
02
ENDCHAR
STARTCHAR C067
ENCODING 67
SWIDTH 540 0
DWIDTH 9 0
BBX 10 11 2 -1
BITMAP
FFC0
4000
7C00
8A00
9200
E200
0C00
F000
1800
0400
0200
ENDCHAR
STARTCHAR C068
ENCODING 68
SWIDTH 600 0
DWIDTH 10 0
BBX 11 9 2 1
BITMAP
FFE0
4400
8800
8980
8E80
8080
8080
4100
3E00
ENDCHAR
STARTCHAR C069
ENCODING 69
SWIDTH 300 0
DWIDTH 5 0
BBX 7 15 1 -1
BITMAP
80
7C
02
02
7E
08
10
20
20
40
40
40
40
38
10
ENDCHAR
STARTCHAR C070
ENCODING 70
SWIDTH 540 0
DWIDTH 9 0
BBX 10 10 2 0
BITMAP
FFC0
2100
1100
1900
6600
E200
1200
0A00
0400
0400
ENDCHAR
STARTCHAR C071
ENCODING 71
SWIDTH 540 0
DWIDTH 9 0
BBX 10 10 2 0
BITMAP
FFC0
4100
4100
3900
3200
4200
E200
1200
0C00
0400
ENDCHAR
STARTCHAR C072
ENCODING 72
SWIDTH 360 0
DWIDTH 6 0
BBX 5 9 2 1
BITMAP
30
48
48
30
00
60
90
90
60
ENDCHAR
STARTCHAR C073
ENCODING 73
SWIDTH 240 0
DWIDTH 4 0
BBX 12 15 -5 0
BITMAP
7F00
8080
8040
7E40
0240
02F0
0040
0040
0040
0080
0080
0080
0080
0100
0100
ENDCHAR
STARTCHAR C074
ENCODING 74
SWIDTH 660 0
DWIDTH 11 0
BBX 12 10 2 0
BITMAP
FF70
0740
0A40
3240
4280
6280
1680
0D80
0D00
0C00
ENDCHAR
STARTCHAR C075
ENCODING 75
SWIDTH 600 0
DWIDTH 10 0
BBX 11 10 2 0
BITMAP
0CE0
F280
E280
0480
3900
7100
0900
0500
0600
0200
ENDCHAR
STARTCHAR C076
ENCODING 76
SWIDTH 720 0
DWIDTH 12 0
BBX 14 10 2 0
BITMAP
FFFC
2040
7FF0
6490
0490
18A0
3D20
3320
0140
0100
ENDCHAR
STARTCHAR C077
ENCODING 77
SWIDTH 420 0
DWIDTH 7 0
BBX 5 9 3 1
BITMAP
30
48
48
30
80
C0
40
20
20
ENDCHAR
STARTCHAR C078
ENCODING 78
SWIDTH 540 0
DWIDTH 9 0
BBX 10 10 2 0
BITMAP
3DC0
4300
8100
B100
7200
0200
0200
0200
0400
0400
ENDCHAR
STARTCHAR C079
ENCODING 79
SWIDTH 240 0
DWIDTH 4 0
BBX 11 15 -4 0
BITMAP
8000
8000
7F80
0040
0040
01E0
0080
0080
0080
0100
0100
0100
0100
0200
0200
ENDCHAR
STARTCHAR C080
ENCODING 80
SWIDTH 780 0
DWIDTH 13 0
BBX 12 11 2 0
BITMAP
0100
3960
6590
6510
0A60
7270
E210
1310
0CE0
0C00
0400
ENDCHAR
STARTCHAR C081
ENCODING 81
SWIDTH 900 0
DWIDTH 15 0
BBX 14 10 2 0
BITMAP
01C0
0678
0844
5C84
9C98
8098
8088
7F88
0170
0100
ENDCHAR
STARTCHAR C082
ENCODING 82
SWIDTH 600 0
DWIDTH 10 0
BBX 11 12 2 -2
BITMAP
FFE0
4400
8800
8980
8E80
8080
8080
4100
3E00
0000
3000
3000
ENDCHAR
STARTCHAR C083
ENCODING 83
SWIDTH 600 0
DWIDTH 10 0
BBX 11 10 2 0
BITMAP
CEE0
3180
3080
7880
D900
0100
0100
0100
0200
0200
ENDCHAR
STARTCHAR C084
ENCODING 84
SWIDTH 480 0
DWIDTH 8 0
BBX 9 15 2 0
BITMAP
8000
8000
7E00
0100
0100
FF80
4000
4000
4C00
4E00
4400
8400
8800
B000
C000
ENDCHAR
STARTCHAR C085
ENCODING 85
SWIDTH 0 0
DWIDTH 0 0
BBX 7 6 -5 -5
BITMAP
70
80
80
78
04
02
ENDCHAR
STARTCHAR C086
ENCODING 86
SWIDTH 480 0
DWIDTH 8 0
BBX 9 12 2 -2
BITMAP
FF80
4000
4000
4C00
4E00
4400
8400
8800
B000
C000
C000
C000
ENDCHAR
STARTCHAR C087
ENCODING 87
SWIDTH 0 0
DWIDTH 0 0
BBX 3 3 -4 -3
BITMAP
40
80
60
ENDCHAR
STARTCHAR C088
ENCODING 88
SWIDTH 480 0
DWIDTH 8 0
BBX 9 10 2 0
BITMAP
FF80
4000
4000
4C00
4E00
4400
8400
8800
B000
C000
ENDCHAR
STARTCHAR C089
ENCODING 89
SWIDTH 540 0
DWIDTH 9 0
BBX 10 10 2 0
BITMAP
FFC0
2100
1100
1100
6200
E200
1200
0A00
0400
0400
ENDCHAR
STARTCHAR C090
ENCODING 90
SWIDTH 480 0
DWIDTH 8 0
BBX 9 15 2 0
BITMAP
0800
0800
0800
0800
0400
FF80
0400
0600
0A00
0A00
1200
6400
8400
8800
7000
ENDCHAR
STARTCHAR C091
ENCODING 91
SWIDTH 180 0
DWIDTH 3 0
BBX 7 17 0 -3
BITMAP
0E
1C
18
18
18
30
30
30
30
60
60
60
60
E0
C0
C0
E0
ENDCHAR
STARTCHAR C092
ENCODING 92
SWIDTH 420 0
DWIDTH 7 0
BBX 7 6 3 7
BITMAP
22
44
48
FC
FC
CC
ENDCHAR
STARTCHAR C093
ENCODING 93
SWIDTH 180 0
DWIDTH 3 0
BBX 7 17 -1 -3
BITMAP
0E
0C
0C
0C
0C
08
18
18
18
10
30
30
30
20
60
E0
E0
ENDCHAR
STARTCHAR C094
ENCODING 94
SWIDTH 0 0
DWIDTH 0 0
BBX 7 4 0 11
BITMAP
02
0C
30
C0
ENDCHAR
STARTCHAR C095
ENCODING 95
SWIDTH 0 0
DWIDTH 0 0
BBX 3 3 -2 -4
BITMAP
80
40
20
ENDCHAR
STARTCHAR C096
ENCODING 96
SWIDTH 300 0
DWIDTH 5 0
BBX 3 6 3 7
BITMAP
20
40
40
E0
E0
C0
ENDCHAR
STARTCHAR C097
ENCODING 97
SWIDTH 780 0
DWIDTH 13 0
BBX 14 10 2 0
BITMAP
FFFC
4E10
5D10
5C90
40A0
40A0
20A0
21A0
1E40
0040
ENDCHAR
STARTCHAR C098
ENCODING 98
SWIDTH 480 0
DWIDTH 8 0
BBX 10 10 2 0
BITMAP
FFC0
0100
0D00
3100
4200
E200
1200
0A00
0400
0400
ENDCHAR
STARTCHAR C099
ENCODING 99
SWIDTH 480 0
DWIDTH 8 0
BBX 9 10 2 0
BITMAP
FF80
6000
6000
5800
4600
4400
8400
8800
B000
C000
ENDCHAR
STARTCHAR C100
ENCODING 100
SWIDTH 480 0
DWIDTH 8 0
BBX 9 10 2 0
BITMAP
FF80
4000
4200
8E00
B400
C400
0800
0800
0800
0800
ENDCHAR
STARTCHAR C101
ENCODING 101
SWIDTH 300 0
DWIDTH 5 0
BBX 6 11 2 -1
BITMAP
FC
10
20
40
40
80
80
80
80
70
20
ENDCHAR
STARTCHAR C102
ENCODING 102
SWIDTH 660 0
DWIDTH 11 0
BBX 12 10 2 0
BITMAP
FFF0
2000
1180
1240
23C0
E380
1200
0C00
0C00
0400
ENDCHAR
STARTCHAR C103
ENCODING 103
SWIDTH 540 0
DWIDTH 9 0
BBX 10 10 2 0
BITMAP
3DC0
4300
F300
8900
0A00
1200
6200
0200
0400
0400
ENDCHAR
STARTCHAR C104
ENCODING 104
SWIDTH 480 0
DWIDTH 8 0
BBX 9 11 2 -1
BITMAP
FF80
1C00
7200
0200
0200
8400
7800
2000
1000
0800
0400
ENDCHAR
STARTCHAR C105
ENCODING 105
SWIDTH 240 0
DWIDTH 4 0
BBX 13 15 2 0
BITMAP
0F80
1060
2010
2008
2000
FC00
2000
2000
2000
2000
4000
4000
4000
4000
8000
ENDCHAR
STARTCHAR C106
ENCODING 106
SWIDTH 720 0
DWIDTH 12 0
BBX 13 10 2 0
BITMAP
FFF8
0C00
97E0
A040
A640
9980
8180
4280
3C80
0080
ENDCHAR
STARTCHAR C107
ENCODING 107
SWIDTH 720 0
DWIDTH 12 0
BBX 13 10 2 0
BITMAP
FFF8
0180
0540
1100
4200
62C0
12C0
0A00
0400
0400
ENDCHAR
STARTCHAR C108
ENCODING 108
SWIDTH 600 0
DWIDTH 10 0
BBX 11 10 2 0
BITMAP
FFE0
0080
3680
4980
8900
B100
7100
0100
0200
0200
ENDCHAR
STARTCHAR C109
ENCODING 109
SWIDTH 540 0
DWIDTH 9 0
BBX 10 10 2 0
BITMAP
FFC0
4100
4100
2100
1200
7200
7A00
6600
0400
0400
ENDCHAR
STARTCHAR C110
ENCODING 110
SWIDTH 540 0
DWIDTH 9 0
BBX 10 10 2 0
BITMAP
FFC0
0100
0100
0100
7200
EA00
C600
0600
0400
0400
ENDCHAR
STARTCHAR C111
ENCODING 111
SWIDTH 660 0
DWIDTH 11 0
BBX 11 14 2 1
BITMAP
0400
0400
0400
03C0
0020
0F20
78A0
B8C0
8780
8600
8100
8100
4200
3C00
ENDCHAR
STARTCHAR C112
ENCODING 112
SWIDTH 600 0
DWIDTH 10 0
BBX 10 10 3 0
BITMAP
79C0
C500
2F00
3100
6200
0200
0200
0200
0400
0400
ENDCHAR
STARTCHAR C113
ENCODING 113
SWIDTH 600 0
DWIDTH 10 0
BBX 9 10 2 1
BITMAP
0300
2480
6900
9E00
9100
9300
9D00
8100
4200
3C00
ENDCHAR
STARTCHAR C114
ENCODING 114
SWIDTH 480 0
DWIDTH 8 0
BBX 10 10 2 0
BITMAP
FFC0
0100
0D00
3100
4200
E200
1200
0A00
6400
6400
ENDCHAR
STARTCHAR C115
ENCODING 115
SWIDTH 600 0
DWIDTH 10 0
BBX 11 10 2 0
BITMAP
FFE0
1080
1080
0E80
0B00
9100
E100
0100
0200
0200
ENDCHAR
STARTCHAR C116
ENCODING 116
SWIDTH 600 0
DWIDTH 10 0
BBX 11 9 2 1
BITMAP
FFE0
8000
8F00
8C80
8C80
4080
4100
2200
1C00
ENDCHAR
STARTCHAR C117
ENCODING 117
SWIDTH 0 0
DWIDTH 0 0
BBX 7 4 -6 -4
BITMAP
78
88
74
02
ENDCHAR
STARTCHAR C118
ENCODING 118
SWIDTH 600 0
DWIDTH 10 0
BBX 12 9 2 1
BITMAP
FFF0
8000
8C00
9C80
9F40
4040
4040
2180
1E00
ENDCHAR
STARTCHAR C119
ENCODING 119
SWIDTH 0 0
DWIDTH 0 0
BBX 6 4 -1 11
BITMAP
B4
B4
88
70
ENDCHAR
STARTCHAR C120
ENCODING 120
SWIDTH 540 0
DWIDTH 9 0
BBX 9 11 3 0
BITMAP
3000
7380
4200
3A00
2200
8400
C400
2400
1400
0800
0800
ENDCHAR
STARTCHAR C121
ENCODING 121
SWIDTH 540 0
DWIDTH 9 0
BBX 10 10 2 0
BITMAP
FFC0
2100
1100
1100
6200
E200
1200
0A00
6400
6400
ENDCHAR
STARTCHAR C122
ENCODING 122
SWIDTH 600 0
DWIDTH 10 0
BBX 10 10 3 0
BITMAP
79C0
C500
C500
0900
7200
C200
0200
0200
0400
0400
ENDCHAR
STARTCHAR C123
ENCODING 123
SWIDTH 600 0
DWIDTH 10 0
BBX 11 1 1 4
BITMAP
FFE0
ENDCHAR
STARTCHAR C124
ENCODING 124
SWIDTH 1080 0
DWIDTH 18 0
BBX 19 1 1 4
BITMAP
FFFFE0
ENDCHAR
STARTCHAR C125
ENCODING 125
SWIDTH 480 0
DWIDTH 8 0
BBX 10 11 1 -1
BITMAP
7FC0
1E00
3100
0100
0200
3C00
0800
6C00
9600
C400
C400
ENDCHAR
STARTCHAR C126
ENCODING 126
SWIDTH 660 0
DWIDTH 11 0
BBX 10 4 2 3
BITMAP
3000
F840
8F80
0700
ENDCHAR
STARTCHAR C127
ENCODING 127
SWIDTH 960 0
DWIDTH 16 0
BBX 17 12 2 -2
BITMAP
FFFB80
048600
09C600
092200
8EA400
80C400
808400
810400
420800
3C0800
180000
180000
ENDCHAR
STARTCHAR C128
ENCODING 128
SWIDTH 720 0
DWIDTH 12 0
BBX 13 10 2 0
BITMAP
FFF8
07C0
1920
6160
47E0
3A40
6240
1380
0D80
0400
ENDCHAR
STARTCHAR C129
ENCODING 129
SWIDTH 540 0
DWIDTH 9 0
BBX 10 16 2 -1
BITMAP
4000
2000
0F00
0080
0080
FFC0
0E00
3500
EE00
1E00
0800
1C00
2E00
4400
4400
3800
ENDCHAR
STARTCHAR C130
ENCODING 130
SWIDTH 720 0
DWIDTH 12 0
BBX 14 10 2 0
BITMAP
FFFC
0F00
10E0
B190
BF70
8E60
8100
4100
4200
3C00
ENDCHAR
STARTCHAR C131
ENCODING 131
SWIDTH 720 0
DWIDTH 12 0
BBX 13 10 2 0
BITMAP
FFF8
07C0
1920
6120
46E0
3AC0
6200
1200
0C00
0400
ENDCHAR
STARTCHAR C132
ENCODING 132
SWIDTH 660 0
DWIDTH 11 0
BBX 12 10 2 0
BITMAP
FFF0
1E40
6540
EB40
1A80
0880
1C80
1E80
0100
0100
ENDCHAR
STARTCHAR C133
ENCODING 133
SWIDTH 840 0
DWIDTH 14 0
BBX 15 10 2 0
BITMAP
FFFE
0700
08B0
10C8
9CB8
8D30
8100
8100
7F00
0100
ENDCHAR
STARTCHAR C134
ENCODING 134
SWIDTH 660 0
DWIDTH 11 0
BBX 13 10 1 0
BITMAP
7FF8
03C0
0CA0
1960
0560
0300
7500
8A00
E200
E200
ENDCHAR
STARTCHAR C135
ENCODING 135
SWIDTH 840 0
DWIDTH 14 0
BBX 15 10 2 0
BITMAP
FFFE
2280
7AE0
6590
0488
1970
3D70
3300
0300
0200
ENDCHAR
STARTCHAR C136
ENCODING 136
SWIDTH 720 0
DWIDTH 12 0
BBX 14 11 2 -1
BITMAP
FFFC
7480
6BE0
6910
0970
3960
3D00
3A00
6600
6600
0600
ENDCHAR
STARTCHAR C137
ENCODING 137
SWIDTH 840 0
DWIDTH 14 0
BBX 15 12 2 -2
BITMAP
FFFE
7488
6BC8
6928
0970
3970
3610
0210
0FA0
0C60
0060
0020
ENDCHAR
STARTCHAR C138
ENCODING 138
SWIDTH 660 0
DWIDTH 11 0
BBX 12 10 2 0
BITMAP
FFF0
0E40
3540
6740
1A80
0E80
1980
6080
0100
0100
ENDCHAR
STARTCHAR C139
ENCODING 139
SWIDTH 660 0
DWIDTH 11 0
BBX 11 11 3 0
BITMAP
0100
79E0
8600
E200
2200
2200
0F00
3500
6500
1600
0A00
ENDCHAR
STARTCHAR C140
ENCODING 140
SWIDTH 540 0
DWIDTH 9 0
BBX 10 10 2 0
BITMAP
3DC0
4300
F100
1100
1200
0200
7200
EA00
C400
0400
ENDCHAR
STARTCHAR C141
ENCODING 141
SWIDTH 540 0
DWIDTH 9 0
BBX 10 10 2 0
BITMAP
3DC0
4300
F100
1100
1200
0600
1A00
3200
0C00
0400
ENDCHAR
STARTCHAR C142
ENCODING 142
SWIDTH 720 0
DWIDTH 12 0
BBX 13 11 2 0
BITMAP
0080
3CF8
42A0
F120
1120
1140
0140
0740
06C0
0680
0080
ENDCHAR
STARTCHAR C143
ENCODING 143
SWIDTH 600 0
DWIDTH 10 0
BBX 12 10 1 0
BITMAP
0F70
30C0
3C40
0440
0880
0080
7B80
E580
E100
0100
ENDCHAR
STARTCHAR C144
ENCODING 144
SWIDTH 540 0
DWIDTH 9 0
BBX 10 11 2 -1
BITMAP
FFC0
4100
4900
3100
6200
1A00
0600
7E00
6400
0400
0400
ENDCHAR
STARTCHAR C145
ENCODING 145
SWIDTH 600 0
DWIDTH 10 0
BBX 11 10 2 0
BITMAP
FFE0
3A40
6580
6400
0E00
3500
E500
1B00
0B00
0800
ENDCHAR
STARTCHAR C146
ENCODING 146
SWIDTH 1200 0
DWIDTH 20 0
BBX 20 11 3 0
BITMAP
0E0000
53FFF0
BC9200
A1FF00
A7A480
BA2440
82E580
44F980
38C800
000800
000800
ENDCHAR
STARTCHAR C147
ENCODING 147
SWIDTH 780 0
DWIDTH 13 0
BBX 14 11 2 0
BITMAP
0700
E91C
5E10
5010
5310
5DA0
22A0
1D20
0320
00C0
0040
ENDCHAR
STARTCHAR C148
ENCODING 148
SWIDTH 600 0
DWIDTH 10 0
BBX 11 10 2 0
BITMAP
FFE0
3480
6B80
6B80
0D00
1900
6200
8200
0200
0200
ENDCHAR
STARTCHAR C149
ENCODING 149
SWIDTH 900 0
DWIDTH 15 0
BBX 15 11 3 0
BITMAP
0E00
53FE
BE08
A208
A7C8
BA90
8310
8710
7890
0060
0020
ENDCHAR
STARTCHAR C150
ENCODING 150
SWIDTH 660 0
DWIDTH 11 0
BBX 11 11 3 0
BITMAP
0E00
53E0
BC80
A080
A680
BB00
8500
7900
3D00
3A00
0200
ENDCHAR
STARTCHAR C151
ENCODING 151
SWIDTH 720 0
DWIDTH 12 0
BBX 14 10 2 0
BITMAP
FFFC
4200
7500
4CC0
8C20
9420
A840
C880
0B00
0C00
ENDCHAR
STARTCHAR C152
ENCODING 152
SWIDTH 720 0
DWIDTH 12 0
BBX 14 10 2 0
BITMAP
FFFC
4200
73E0
4C90
8D10
9660
A380
C100
0080
0040
ENDCHAR
STARTCHAR C153
ENCODING 153
SWIDTH 720 0
DWIDTH 12 0
BBX 13 12 2 -2
BITMAP
FFF8
4600
7DC0
4D20
9620
A0C0
C700
0100
0180
0F00
0300
0100
ENDCHAR
STARTCHAR C154
ENCODING 154
SWIDTH 660 0
DWIDTH 11 0
BBX 13 10 1 0
BITMAP
7FF8
1000
1E00
2400
2FC0
3240
5AC0
8640
8580
7C00
ENDCHAR
STARTCHAR C155
ENCODING 155
SWIDTH 960 0
DWIDTH 16 0
BBX 17 10 2 0
BITMAP
FFFF80
180000
A7C000
9CC400
453C00
3CF800
041800
021800
01E800
000800
ENDCHAR
STARTCHAR C156
ENCODING 156
SWIDTH 960 0
DWIDTH 16 0
BBX 17 12 2 -2
BITMAP
FFFF80
180000
A7C000
9CC000
453C00
3CF400
041800
021800
01F800
006800
00E800
001800
ENDCHAR
STARTCHAR C157
ENCODING 157
SWIDTH 1200 0
DWIDTH 20 0
BBX 21 10 2 0
BITMAP
FFFFB8
0C00A0
13C720
A05920
A6E140
9AE140
431340
450B40
390680
010680
ENDCHAR
STARTCHAR C158
ENCODING 158
SWIDTH 720 0
DWIDTH 12 0
BBX 14 9 2 1
BITMAP
FFFC
0C00
9260
A390
A660
9A60
8320
44C0
3800
ENDCHAR
STARTCHAR C159
ENCODING 159
SWIDTH 720 0
DWIDTH 12 0
BBX 13 12 2 -2
BITMAP
FFF8
0C00
9400
A3C0
A640
9A80
8280
4580
3E80
0900
0700
0100
ENDCHAR
STARTCHAR C161
ENCODING 161
SWIDTH 600 0
DWIDTH 10 0
BBX 10 13 1 -2
BITMAP
0180
1A40
34C0
04C0
1A40
2580
4A00
3200
0C00
F000
1800
0600
0100
ENDCHAR
STARTCHAR C162
ENCODING 162
SWIDTH 660 0
DWIDTH 11 0
BBX 11 11 2 0
BITMAP
01C0
3E20
6460
6C60
1220
A1C0
A480
9A80
4280
3D00
0100
ENDCHAR
STARTCHAR C163
ENCODING 163
SWIDTH 600 0
DWIDTH 10 0
BBX 9 10 2 0
BITMAP
0D80
5780
5580
4700
3800
1A00
6A00
CC00
2C00
1400
ENDCHAR
STARTCHAR C164
ENCODING 164
SWIDTH 540 0
DWIDTH 9 0
BBX 12 16 1 -1
BITMAP
2000
1800
07C0
0020
0020
7FF0
0800
1000
1180
1180
1080
2100
2700
9900
4200
3C00
ENDCHAR
STARTCHAR C165
ENCODING 165
SWIDTH 480 0
DWIDTH 8 0
BBX 9 16 2 -2
BITMAP
6000
1E00
0100
0100
FF80
4000
4000
4C00
4C00
8400
8800
9000
7800
6800
1800
1000
ENDCHAR
STARTCHAR C166
ENCODING 166
SWIDTH 900 0
DWIDTH 15 0
BBX 16 10 2 0
BITMAP
FFFF
1020
1440
5A48
4674
4444
3C04
0408
0210
01E0
ENDCHAR
STARTCHAR C167
ENCODING 167
SWIDTH 780 0
DWIDTH 13 0
BBX 13 14 3 0
BITMAP
0C00
03E0
0010
0010
77F8
8C00
C400
C8C0
08C0
0840
0880
1100
1200
0C00
ENDCHAR
STARTCHAR C168
ENCODING 168
SWIDTH 600 0
DWIDTH 10 0
BBX 7 16 3 0
BITMAP
02
04
08
08
08
38
48
CC
0C
12
12
22
42
84
88
70
ENDCHAR
STARTCHAR C169
ENCODING 169
SWIDTH 600 0
DWIDTH 10 0
BBX 10 10 2 0
BITMAP
1CC0
7340
7040
8080
8700
4700
4080
4080
2100
1E00
ENDCHAR
STARTCHAR C170
ENCODING 170
SWIDTH 540 0
DWIDTH 9 0
BBX 10 10 2 0
BITMAP
1DC0
2300
6100
6100
0200
3A00
4600
C200
C400
0400
ENDCHAR
STARTCHAR C171
ENCODING 171
SWIDTH 660 0
DWIDTH 11 0
BBX 11 11 3 0
BITMAP
0200
3BE0
4480
C480
C480
0500
0500
1D00
1B00
0200
0200
ENDCHAR
STARTCHAR C172
ENCODING 172
SWIDTH 540 0
DWIDTH 9 0
BBX 11 10 2 0
BITMAP
FFE0
0F00
5080
7080
7700
4600
4100
4100
4200
3C00
ENDCHAR
STARTCHAR C173
ENCODING 173
SWIDTH 540 0
DWIDTH 9 0
BBX 10 11 2 -1
BITMAP
FFC0
0E00
7100
7E00
4C00
4200
4200
3C00
3C00
3400
0800
ENDCHAR
STARTCHAR C174
ENCODING 174
SWIDTH 600 0
DWIDTH 10 0
BBX 10 10 3 0
BITMAP
6DC0
D500
D500
0900
7200
4200
0200
0200
0400
0400
ENDCHAR
STARTCHAR C175
ENCODING 175
SWIDTH 600 0
DWIDTH 10 0
BBX 11 10 2 0
BITMAP
FFE0
4780
4680
2080
1100
0F00
7A00
6600
6200
0200
ENDCHAR
STARTCHAR C176
ENCODING 176
SWIDTH 600 0
DWIDTH 10 0
BBX 11 10 2 0
BITMAP
FFE0
4700
4680
2080
2080
1100
0E00
1200
0A00
0600
ENDCHAR
STARTCHAR C177
ENCODING 177
SWIDTH 720 0
DWIDTH 12 0
BBX 13 10 2 0
BITMAP
FFF8
4FA0
4EA0
20A0
1140
0E40
0E40
0D40
0080
0080
ENDCHAR
STARTCHAR C178
ENCODING 178
SWIDTH 660 0
DWIDTH 11 0
BBX 12 10 2 0
BITMAP
FFF0
0380
0440
4840
8C80
8C80
8080
8080
7F00
0100
ENDCHAR
STARTCHAR C179
ENCODING 179
SWIDTH 780 0
DWIDTH 13 0
BBX 14 10 2 0
BITMAP
FFFC
0700
08B0
10B0
9D10
9DE0
8100
8100
7E00
0200
ENDCHAR
STARTCHAR C180
ENCODING 180
SWIDTH 840 0
DWIDTH 14 0
BBX 16 10 2 0
BITMAP
FEF7
410C
478C
4C44
B448
C888
8808
0808
1010
1010
ENDCHAR
STARTCHAR C181
ENCODING 181
SWIDTH 840 0
DWIDTH 14 0
BBX 15 10 2 0
BITMAP
FFFE
4208
4608
4DC8
B990
CA10
8B10
1090
1060
1020
ENDCHAR
STARTCHAR C182
ENCODING 182
SWIDTH 600 0
DWIDTH 10 0
BBX 11 10 2 0
BITMAP
FFE0
4800
7800
C900
9700
1900
1200
0200
0200
0200
ENDCHAR
STARTCHAR C183
ENCODING 183
SWIDTH 600 0
DWIDTH 10 0
BBX 11 10 2 0
BITMAP
FFE0
4000
4400
5A00
E700
1D00
6500
1500
0A00
0A00
ENDCHAR
STARTCHAR C184
ENCODING 184
SWIDTH 540 0
DWIDTH 9 0
BBX 10 10 2 0
BITMAP
FFC0
4000
4600
5900
E200
1E00
6200
1200
0C00
0400
ENDCHAR
STARTCHAR C185
ENCODING 185
SWIDTH 600 0
DWIDTH 10 0
BBX 11 10 2 0
BITMAP
FFE0
4400
5C00
6800
0800
BA00
BD00
8100
4200
3C00
ENDCHAR
STARTCHAR C186
ENCODING 186
SWIDTH 600 0
DWIDTH 10 0
BBX 11 10 2 0
BITMAP
FFE0
4400
5C00
6800
0800
3A00
BD00
9100
8600
7A00
ENDCHAR
STARTCHAR C187
ENCODING 187
SWIDTH 540 0
DWIDTH 9 0
BBX 10 10 2 0
BITMAP
FFC0
4100
4D00
B900
CA00
8A00
1200
3A00
3400
0400
ENDCHAR
STARTCHAR C188
ENCODING 188
SWIDTH 480 0
DWIDTH 8 0
BBX 10 12 1 -1
BITMAP
0C00
1DC0
1700
0D00
3100
0A00
0600
0600
FA00
E400
0400
0400
ENDCHAR
STARTCHAR C189
ENCODING 189
SWIDTH 900 0
DWIDTH 15 0
BBX 16 11 2 0
BITMAP
1800
39FF
2304
1D1C
3264
4388
E388
1248
0C28
0410
0410
ENDCHAR
STARTCHAR C190
ENCODING 190
SWIDTH 780 0
DWIDTH 13 0
BBX 14 14 2 0
BITMAP
0600
01F0
0008
0008
FFFC
0200
7200
EC60
C460
0420
0440
0880
0900
0600
ENDCHAR
STARTCHAR C191
ENCODING 191
SWIDTH 600 0
DWIDTH 10 0
BBX 12 10 2 0
BITMAP
FFF0
7400
CC00
CC80
8F40
8040
8040
8080
4300
3C00
ENDCHAR
STARTCHAR C192
ENCODING 192
SWIDTH 600 0
DWIDTH 10 0
BBX 11 10 2 0
BITMAP
FFE0
0080
3080
B900
8600
4F00
4F00
4100
2200
1C00
ENDCHAR
STARTCHAR C193
ENCODING 193
SWIDTH 600 0
DWIDTH 10 0
BBX 11 11 2 -1
BITMAP
FFE0
0100
7100
6E00
0E00
7100
7E00
4E00
4200
4200
3C00
ENDCHAR
STARTCHAR C194
ENCODING 194
SWIDTH 600 0
DWIDTH 10 0
BBX 11 11 2 -1
BITMAP
FFE0
0080
3880
B700
4F00
4E80
4080
2100
1E00
1A00
0600
ENDCHAR
STARTCHAR C195
ENCODING 195
SWIDTH 600 0
DWIDTH 10 0
BBX 11 11 2 -1
BITMAP
FFE0
0080
3880
3700
0900
1100
9900
9A00
8200
7E00
0200
ENDCHAR
STARTCHAR C196
ENCODING 196
SWIDTH 600 0
DWIDTH 10 0
BBX 11 11 2 -1
BITMAP
FFE0
0100
7100
6E00
1900
1100
0200
3C00
1800
0400
0200
ENDCHAR
STARTCHAR C197
ENCODING 197
SWIDTH 660 0
DWIDTH 11 0
BBX 12 10 2 0
BITMAP
FFF0
0400
F440
CCC0
CB80
0C80
0880
0100
0100
0100
ENDCHAR
STARTCHAR C198
ENCODING 198
SWIDTH 600 0
DWIDTH 10 0
BBX 11 10 2 0
BITMAP
FFE0
0200
7A00
6600
0700
1D00
6500
1500
0E00
0A00
ENDCHAR
STARTCHAR C199
ENCODING 199
SWIDTH 540 0
DWIDTH 9 0
BBX 11 10 1 0
BITMAP
7FE0
0080
3C80
7280
6100
0100
7900
E500
C200
0200
ENDCHAR
STARTCHAR C200
ENCODING 200
SWIDTH 540 0
DWIDTH 9 0
BBX 10 10 2 0
BITMAP
FFC0
0100
7900
E500
C200
0600
1A00
3200
0C00
0400
ENDCHAR
STARTCHAR C201
ENCODING 201
SWIDTH 660 0
DWIDTH 11 0
BBX 12 10 2 0
BITMAP
FFF0
3A40
E640
E640
0280
0280
0E80
0D80
0100
0100
ENDCHAR
STARTCHAR C202
ENCODING 202
SWIDTH 720 0
DWIDTH 12 0
BBX 13 10 2 0
BITMAP
FFF8
0420
0420
7420
4F40
0CC0
4840
3040
0080
0080
ENDCHAR
STARTCHAR C203
ENCODING 203
SWIDTH 780 0
DWIDTH 13 0
BBX 13 14 3 0
BITMAP
0C00
03E0
0010
0010
77F8
8C00
7C00
44C0
04C0
0440
0840
0880
0900
0600
ENDCHAR
STARTCHAR C204
ENCODING 204
SWIDTH 660 0
DWIDTH 11 0
BBX 12 11 2 0
BITMAP
0040
1E70
6380
1480
9880
A380
4780
4680
4080
2100
1E00
ENDCHAR
STARTCHAR C205
ENCODING 205
SWIDTH 600 0
DWIDTH 10 0
BBX 10 10 3 0
BITMAP
3DC0
C700
2B00
3100
4200
0200
7A00
E600
C400
0400
ENDCHAR
STARTCHAR C206
ENCODING 206
SWIDTH 600 0
DWIDTH 10 0
BBX 12 11 1 -1
BITMAP
1F70
31C0
0EC0
0840
1080
1C80
6280
A780
3900
2100
0100
ENDCHAR
STARTCHAR C207
ENCODING 207
SWIDTH 600 0
DWIDTH 10 0
BBX 11 10 2 0
BITMAP
1EE0
6380
1580
1880
2100
7100
8F00
E900
E200
0200
ENDCHAR
STARTCHAR C208
ENCODING 208
SWIDTH 720 0
DWIDTH 12 0
BBX 13 10 2 0
BITMAP
FFF8
0420
7420
FC20
2740
04C0
4840
3040
0080
0080
ENDCHAR
STARTCHAR C209
ENCODING 209
SWIDTH 660 0
DWIDTH 11 0
BBX 13 11 1 -1
BITMAP
7FF8
0CC0
04A0
08A0
19E0
05C0
7300
8F00
EA00
6200
0200
ENDCHAR
STARTCHAR C210
ENCODING 210
SWIDTH 660 0
DWIDTH 11 0
BBX 13 10 2 0
BITMAP
FFF8
1C00
6FE0
9860
9E40
8940
8180
4280
3C80
0080
ENDCHAR
STARTCHAR C211
ENCODING 211
SWIDTH 660 0
DWIDTH 11 0
BBX 12 10 2 0
BITMAP
FFF0
0C00
7440
C9C0
3A80
1C80
0880
0100
0100
0100
ENDCHAR
STARTCHAR C212
ENCODING 212
SWIDTH 660 0
DWIDTH 11 0
BBX 12 10 2 0
BITMAP
FFF0
0700
3900
4380
4E80
3280
6280
1480
0D00
0500
ENDCHAR
STARTCHAR C213
ENCODING 213
SWIDTH 540 0
DWIDTH 9 0
BBX 10 10 2 0
BITMAP
FFC0
0700
3900
C100
4E00
3200
6200
1200
0C00
0400
ENDCHAR
STARTCHAR C214
ENCODING 214
SWIDTH 540 0
DWIDTH 9 0
BBX 11 10 1 0
BITMAP
7FE0
0380
0C80
3080
0D00
0300
7700
EB00
E200
0200
ENDCHAR
STARTCHAR C215
ENCODING 215
SWIDTH 720 0
DWIDTH 12 0
BBX 13 10 2 0
BITMAP
FFF8
0000
0040
5CA0
9F20
8C40
8040
8040
7F80
0080
ENDCHAR
STARTCHAR C216
ENCODING 216
SWIDTH 600 0
DWIDTH 10 0
BBX 12 11 1 -1
BITMAP
7FF0
2C80
2F40
2040
1080
0F80
7100
8F00
E900
6100
0200
ENDCHAR
STARTCHAR C217
ENCODING 217
SWIDTH 540 0
DWIDTH 9 0
BBX 10 10 2 0
BITMAP
FFC0
2080
E100
F100
0E00
0200
F200
CA00
C400
0400
ENDCHAR
STARTCHAR C218
ENCODING 218
SWIDTH 1020 0
DWIDTH 17 0
BBX 18 10 2 0
BITMAP
FF79C0
618500
714B00
6E7100
00C200
008200
000200
000200
000400
000400
ENDCHAR
STARTCHAR C219
ENCODING 219
SWIDTH 960 0
DWIDTH 16 0
BBX 17 10 2 0
BITMAP
FFFF80
610C00
710A00
6F1200
009200
011C00
061C00
01A000
006000
002000
ENDCHAR
STARTCHAR C220
ENCODING 220
SWIDTH 540 0
DWIDTH 9 0
BBX 10 10 2 0
BITMAP
FFC0
2080
6080
7100
0E00
0E00
7200
1200
0C00
0400
ENDCHAR
STARTCHAR C221
ENCODING 221
SWIDTH 660 0
DWIDTH 11 0
BBX 12 10 2 0
BITMAP
FFF0
1040
7040
7880
9F00
9B80
9C80
8080
4100
3E00
ENDCHAR
STARTCHAR C222
ENCODING 222
SWIDTH 600 0
DWIDTH 10 0
BBX 11 10 2 0
BITMAP
FFE0
1080
7080
6900
1E00
BD00
B900
8100
7E00
0200
ENDCHAR
STARTCHAR C223
ENCODING 223
SWIDTH 720 0
DWIDTH 12 0
BBX 13 10 2 0
BITMAP
FFF8
10A0
70A0
6920
0740
0140
0740
06C0
0080
0080
ENDCHAR
STARTCHAR C224
ENCODING 224
SWIDTH 600 0
DWIDTH 10 0
BBX 11 10 2 0
BITMAP
FFE0
1080
7080
6880
0700
7100
8F00
C900
C200
0200
ENDCHAR
STARTCHAR C225
ENCODING 225
SWIDTH 660 0
DWIDTH 11 0
BBX 12 10 2 0
BITMAP
FFF0
0100
7700
EA00
E300
1E80
6280
1580
0D80
0400
ENDCHAR
STARTCHAR C226
ENCODING 226
SWIDTH 600 0
DWIDTH 10 0
BBX 11 10 2 0
BITMAP
FFE0
0080
7B80
E580
E100
3D00
4300
F300
1200
2200
ENDCHAR
STARTCHAR C227
ENCODING 227
SWIDTH 600 0
DWIDTH 10 0
BBX 11 12 2 -2
BITMAP
FFE0
7A80
8500
E100
7D00
3300
AB00
9700
4600
4100
2100
1E00
ENDCHAR
STARTCHAR C228
ENCODING 228
SWIDTH 780 0
DWIDTH 13 0
BBX 14 14 2 0
BITMAP
0600
01F0
0008
0008
FFFC
0200
6E00
F660
E660
0620
0420
0440
0480
0300
ENDCHAR
STARTCHAR C229
ENCODING 229
SWIDTH 720 0
DWIDTH 12 0
BBX 13 10 2 0
BITMAP
FFF8
7600
EA00
E240
23A0
2220
2020
2040
1080
0F00
ENDCHAR
STARTCHAR C230
ENCODING 230
SWIDTH 600 0
DWIDTH 10 0
BBX 11 10 2 0
BITMAP
FFE0
3B80
4480
6080
6100
7900
8500
5B00
6200
C200
ENDCHAR
STARTCHAR C231
ENCODING 231
SWIDTH 600 0
DWIDTH 10 0
BBX 11 10 2 0
BITMAP
FFE0
0080
7A80
8580
E500
6300
0D00
1900
0600
0200
ENDCHAR
STARTCHAR C232
ENCODING 232
SWIDTH 720 0
DWIDTH 12 0
BBX 13 10 2 0
BITMAP
FFF8
00A0
7B20
E520
E140
0140
0740
06C0
0680
0080
ENDCHAR
STARTCHAR C233
ENCODING 233
SWIDTH 600 0
DWIDTH 10 0
BBX 12 10 1 0
BITMAP
7FF0
0040
3DC0
72C0
7080
3880
4780
E480
E100
0100
ENDCHAR
STARTCHAR C234
ENCODING 234
SWIDTH 840 0
DWIDTH 14 0
BBX 15 10 2 0
BITMAP
EDFE
3B00
7D80
6E60
0210
0210
0420
0440
0580
0600
ENDCHAR
STARTCHAR C235
ENCODING 235
SWIDTH 900 0
DWIDTH 15 0
BBX 16 10 2 0
BITMAP
F6FF
3980
7CF8
7D24
0144
0198
00E0
0040
0020
0010
ENDCHAR
STARTCHAR C236
ENCODING 236
SWIDTH 600 0
DWIDTH 10 0
BBX 11 10 2 0
BITMAP
F6E0
3980
7C80
7C80
0100
0100
3D00
7300
6200
0200
ENDCHAR
STARTCHAR C237
ENCODING 237
SWIDTH 720 0
DWIDTH 12 0
BBX 13 11 2 0
BITMAP
0080
E6F8
39A0
7D20
7D20
0140
0140
0740
06C0
0680
0080
ENDCHAR
STARTCHAR C238
ENCODING 238
SWIDTH 600 0
DWIDTH 10 0
BBX 11 10 2 0
BITMAP
F6E0
3980
7C80
7C80
0100
7100
8F00
E900
E200
0200
ENDCHAR
STARTCHAR C239
ENCODING 239
SWIDTH 600 0
DWIDTH 10 0
BBX 11 10 2 0
BITMAP
F6E0
3980
7C80
7C80
0100
0300
0D00
1900
0600
0200
ENDCHAR
STARTCHAR C240
ENCODING 240
SWIDTH 600 0
DWIDTH 10 0
BBX 11 10 2 0
BITMAP
FFE0
3200
5200
4E00
7D00
6500
C700
2B00
1800
0800
ENDCHAR
STARTCHAR C241
ENCODING 241
SWIDTH 840 0
DWIDTH 14 0
BBX 15 11 2 -1
BITMAP
FFFE
3200
4A00
4780
7C80
4CF0
8CB0
8130
8100
7F00
0100
ENDCHAR
STARTCHAR C242
ENCODING 242
SWIDTH 540 0
DWIDTH 9 0
BBX 10 16 2 -1
BITMAP
4000
2000
0F00
0080
0080
FFC0
3200
5200
8C00
B800
F600
8600
8400
8400
8800
7000
ENDCHAR
STARTCHAR C243
ENCODING 243
SWIDTH 600 0
DWIDTH 10 0
BBX 11 16 2 0
BITMAP
0100
0200
0400
0400
0400
0400
FFE0
4600
9E00
9900
E900
1100
2100
4200
4400
3800
ENDCHAR
STARTCHAR C244
ENCODING 244
SWIDTH 780 0
DWIDTH 13 0
BBX 12 10 2 0
BITMAP
FF60
2190
1110
1A60
6670
C210
2310
14E0
0C00
0400
ENDCHAR
STARTCHAR C245
ENCODING 245
SWIDTH 900 0
DWIDTH 15 0
BBX 16 10 2 0
BITMAP
FEF7
331C
54AC
48C4
7188
0008
0008
0008
0010
0010
ENDCHAR
STARTCHAR C246
ENCODING 246
SWIDTH 840 0
DWIDTH 14 0
BBX 15 10 2 0
BITMAP
FFFE
4230
9428
9C48
E248
0470
1C70
0280
0180
0080
ENDCHAR
STARTCHAR C247
ENCODING 247
SWIDTH 600 0
DWIDTH 10 0
BBX 11 10 2 0
BITMAP
FFE0
3280
5280
4C80
7900
1900
3D00
3300
0200
0200
ENDCHAR
STARTCHAR C248
ENCODING 248
SWIDTH 720 0
DWIDTH 12 0
BBX 14 10 2 0
BITMAP
FFFC
0C40
1440
6380
03C0
0CA0
18A0
0560
0360
0100
ENDCHAR
STARTCHAR C249
ENCODING 249
SWIDTH 840 0
DWIDTH 14 0
BBX 15 11 2 -1
BITMAP
FFFE
0C40
5440
6380
0480
4CF0
8CB0
8130
8100
7F00
0100
ENDCHAR
STARTCHAR C250
ENCODING 250
SWIDTH 720 0
DWIDTH 12 0
BBX 14 12 2 -2
BITMAP
FFFC
0C40
1440
6380
01C0
06A0
0CE0
02E0
7700
E900
E100
0200
ENDCHAR
STARTCHAR C251
ENCODING 251
SWIDTH 780 0
DWIDTH 13 0
BBX 14 10 2 0
BITMAP
FF1C
1910
1910
6710
0DA0
0EA0
0D20
0620
0140
00C0
ENDCHAR
STARTCHAR C252
ENCODING 252
SWIDTH 840 0
DWIDTH 14 0
BBX 15 14 2 0
BITMAP
0700
00F8
0004
0004
FFFE
1100
1100
1D30
9330
E310
0210
0220
0240
0380
ENDCHAR
STARTCHAR C253
ENCODING 253
SWIDTH 660 0
DWIDTH 11 0
BBX 12 10 2 0
BITMAP
FFF0
0420
0A20
F1C0
4700
4780
4080
2080
2100
1E00
ENDCHAR
STARTCHAR C254
ENCODING 254
SWIDTH 600 0
DWIDTH 10 0
BBX 11 11 2 -1
BITMAP
FFE0
1880
1880
E700
0E00
7100
7E00
4E00
4200
4200
3C00
ENDCHAR
STARTCHAR C255
ENCODING 255
SWIDTH 660 0
DWIDTH 11 0
BBX 12 11 2 -1
BITMAP
FFF0
0C40
5440
6780
0880
1C80
9C80
8100
8100
7F00
0100
ENDCHAR
ENDFONT
